<svg width="208" height="208" viewBox="0 0 208 208" fill="none" xmlns="http://www.w3.org/2000/svg">
<path d="M112.536 162.349V112.566L141.843 132.002C133.348 145.392 123.736 155.355 112.536 162.349Z" fill="#455A64"/>
<path d="M112.536 162.349V112.566L141.843 132.002C133.348 145.392 123.736 155.355 112.536 162.349Z" fill="url(#paint0_linear)"/>
<path d="M112.536 112.566L100.832 105.776V155.56L112.536 162.349V112.566Z" fill="url(#paint1_linear)"/>
<path d="M158.848 74.8607L114.943 106.55L103.223 99.7605L147.129 68.0713L158.848 74.8607Z" fill="url(#paint2_linear)"/>
<path d="M158.848 74.8607C160.012 90.9343 155.293 108.697 145.115 126.571L126.788 114.429L114.943 106.534L158.848 74.8607Z" fill="#27DEBF"/>
<path d="M158.848 74.8607C160.012 90.9343 155.293 108.697 145.115 126.571L126.788 114.429L114.943 106.534L158.848 74.8607Z" fill="url(#paint3_linear)"/>
<path d="M145.115 126.571L133.395 119.781L103.223 99.7605L114.943 106.55L145.115 126.571Z" fill="url(#paint4_linear)"/>
<path d="M97.3709 84.808L89.0019 50.7345C90.166 49.7872 91.2986 48.9187 92.6515 47.9398C108.1 36.7767 122.792 34.7715 133.049 40.7083L144.627 47.4345C148.088 51.6503 145.461 56.1976 146.578 63.2239L100.737 96.3816L100.281 96.7131L97.3709 84.808Z" fill="#27DEBF"/>
<path d="M97.3709 84.808L89.0019 50.7345C90.166 49.7872 91.2986 48.9187 92.6515 47.9398C108.1 36.7767 122.792 34.7715 133.049 40.7083L144.627 47.4345C148.088 51.6503 145.461 56.1976 146.578 63.2239L100.737 96.3816L100.281 96.7131L97.3709 84.808Z" fill="url(#paint5_linear)"/>
<path d="M109.075 91.5975L100.706 57.524C101.886 56.5766 103.018 55.7082 104.371 54.7293C130.265 36.0346 153.987 43.0135 158.298 70.0292L112.457 103.187L112.001 103.518L109.075 91.5975Z" fill="#27DEBF"/>
<path d="M109.075 91.5975L100.706 57.524C101.886 56.5766 103.018 55.7082 104.371 54.7293C130.265 36.0346 153.987 43.0135 158.298 70.0292L112.457 103.187L112.001 103.518L109.075 91.5975Z" fill="url(#paint6_linear)"/>
<path d="M89.0019 50.7504L100.706 57.524L112.001 103.455L100.281 96.6658L89.0019 50.7504Z" fill="url(#paint7_linear)"/>
<path d="M96.3484 158.15C88.7816 162.16 82.1903 167.623 75.9922 167.465L64.2724 160.676C58.153 157.171 53.6224 150.713 51.3571 141.508C48.2108 128.718 50.1772 112.424 56.863 95.6238C63.0217 80.0617 72.511 66.0474 84.6601 54.5715L96.3798 61.3609L92.0223 84.5712L96.3484 102.176V158.15Z" fill="#27DEBF"/>
<path d="M96.3484 158.15C88.7816 162.16 82.1903 167.623 75.9922 167.465L64.2724 160.676C58.153 157.171 53.6224 150.713 51.3571 141.508C48.2108 128.718 50.1772 112.424 56.863 95.6238C63.0217 80.0617 72.511 66.0474 84.6601 54.5715L96.3798 61.3609L92.0223 84.5712L96.3484 102.176V158.15Z" fill="url(#paint8_linear)"/>
<path d="M108.1 164.939C86.3275 176.386 68.3939 169.96 63.0767 148.297C59.9305 135.508 61.8812 119.213 68.5827 102.413C74.7414 86.8511 84.2307 72.8367 96.3798 61.3608L103.742 91.3606L108.1 108.903V164.939Z" fill="url(#paint9_linear)"/>
<path fill-rule="evenodd" clip-rule="evenodd" d="M129.703 3.11292L204.396 75.4369L179.376 176.141L104.682 103.817L129.703 3.11292V3.11292Z" stroke="#B5BDFC" stroke-width="0.28"/>
<path fill-rule="evenodd" clip-rule="evenodd" d="M104.683 103.817L179.377 176.141L78.7427 204.704L4.04883 132.38L104.683 103.817V103.817Z" stroke="#B5BDFC" stroke-width="0.28"/>
<path fill-rule="evenodd" clip-rule="evenodd" d="M129.704 3.11292L104.683 103.817L4.04883 132.38L28.8854 31.6763L129.704 3.11292V3.11292Z" stroke="#B5BDFC" stroke-width="0.28"/>
<path fill-rule="evenodd" clip-rule="evenodd" d="M3.12753 135.676C4.85482 135.676 6.25507 134.283 6.25507 132.563C6.25507 130.844 4.85482 129.451 3.12753 129.451C1.40024 129.451 0 130.844 0 132.563C0 134.283 1.40024 135.676 3.12753 135.676Z" fill="#B6BDFC"/>
<path fill-rule="evenodd" clip-rule="evenodd" d="M28.884 34.7888C30.6113 34.7888 32.0115 33.3952 32.0115 31.6761C32.0115 29.9571 30.6113 28.5635 28.884 28.5635C27.1567 28.5635 25.7564 29.9571 25.7564 31.6761C25.7564 33.3952 27.1567 34.7888 28.884 34.7888Z" fill="#B6BDFC"/>
<path fill-rule="evenodd" clip-rule="evenodd" d="M104.13 106.38C105.857 106.38 107.257 104.987 107.257 103.268C107.257 101.548 105.857 100.155 104.13 100.155C102.402 100.155 101.002 101.548 101.002 103.268C101.002 104.987 102.402 106.38 104.13 106.38Z" fill="#B6BDFC"/>
<path fill-rule="evenodd" clip-rule="evenodd" d="M179.56 179.07C181.287 179.07 182.687 177.677 182.687 175.958C182.687 174.239 181.287 172.845 179.56 172.845C177.832 172.845 176.432 174.239 176.432 175.958C176.432 177.677 177.832 179.07 179.56 179.07Z" fill="#B6BDFC"/>
<path fill-rule="evenodd" clip-rule="evenodd" d="M129.702 6.22528C131.43 6.22528 132.83 4.8317 132.83 3.11264C132.83 1.39358 131.43 0 129.702 0C127.975 0 126.575 1.39358 126.575 3.11264C126.575 4.8317 127.975 6.22528 129.702 6.22528Z" fill="#B6BDFC"/>
<path fill-rule="evenodd" clip-rule="evenodd" d="M78.3734 208C80.1007 208 81.501 206.606 81.501 204.887C81.501 203.168 80.1007 201.775 78.3734 201.775C76.6462 201.775 75.2459 203.168 75.2459 204.887C75.2459 206.606 76.6462 208 78.3734 208Z" fill="#B6BDFC"/>
<path fill-rule="evenodd" clip-rule="evenodd" d="M204.764 78.5493C206.491 78.5493 207.892 77.1557 207.892 75.4366C207.892 73.7176 206.491 72.324 204.764 72.324C203.037 72.324 201.636 73.7176 201.636 75.4366C201.636 77.1557 203.037 78.5493 204.764 78.5493Z" fill="#B6BDFC"/>
<defs>
<linearGradient id="paint0_linear" x1="112.536" y1="137.458" x2="141.843" y2="137.458" gradientUnits="userSpaceOnUse">
<stop stop-color="#009FFF"/>
<stop offset="1" stop-color="#4C49C4"/>
</linearGradient>
<linearGradient id="paint1_linear" x1="106.684" y1="105.776" x2="106.684" y2="162.349" gradientUnits="userSpaceOnUse">
<stop offset="0.166667" stop-color="#303D87"/>
<stop offset="1" stop-color="#1A193D"/>
</linearGradient>
<linearGradient id="paint2_linear" x1="131.036" y1="68.0713" x2="131.036" y2="106.55" gradientUnits="userSpaceOnUse">
<stop offset="0.166667" stop-color="#303D87"/>
<stop offset="1" stop-color="#1A193D"/>
</linearGradient>
<linearGradient id="paint3_linear" x1="114.943" y1="100.716" x2="159.022" y2="100.716" gradientUnits="userSpaceOnUse">
<stop stop-color="#4C49C4"/>
<stop offset="0.46875" stop-color="#4C49C4"/>
<stop offset="1" stop-color="#009FFF"/>
</linearGradient>
<linearGradient id="paint4_linear" x1="124.169" y1="99.7605" x2="124.169" y2="126.571" gradientUnits="userSpaceOnUse">
<stop offset="0.166667" stop-color="#303D87"/>
<stop offset="1" stop-color="#1A193D"/>
</linearGradient>
<linearGradient id="paint5_linear" x1="89.0019" y1="67.077" x2="146.578" y2="67.077" gradientUnits="userSpaceOnUse">
<stop offset="0.140625" stop-color="#4C49C4"/>
<stop offset="0.75" stop-color="#009FFF"/>
</linearGradient>
<linearGradient id="paint6_linear" x1="100.706" y1="73.8742" x2="158.298" y2="73.8742" gradientUnits="userSpaceOnUse">
<stop stop-color="#009FFF"/>
<stop offset="0.567708" stop-color="#4C49C4"/>
<stop offset="1" stop-color="#4C49C4"/>
</linearGradient>
<linearGradient id="paint7_linear" x1="100.501" y1="50.7504" x2="100.501" y2="103.455" gradientUnits="userSpaceOnUse">
<stop offset="0.166667" stop-color="#303D87"/>
<stop offset="1" stop-color="#1A193D"/>
</linearGradient>
<linearGradient id="paint8_linear" x1="49.8933" y1="111.02" x2="96.3798" y2="111.02" gradientUnits="userSpaceOnUse">
<stop offset="0.140625" stop-color="#4C49C4"/>
<stop offset="0.75" stop-color="#009FFF"/>
</linearGradient>
<linearGradient id="paint9_linear" x1="61.6098" y1="115.944" x2="108.1" y2="115.944" gradientUnits="userSpaceOnUse">
<stop stop-color="#009FFF"/>
<stop offset="1" stop-color="#4C49C4"/>
</linearGradient>
</defs>
</svg>
