<svg width="208" height="208" viewBox="0 0 208 208" fill="none" xmlns="http://www.w3.org/2000/svg">
<path fill-rule="evenodd" clip-rule="evenodd" d="M129.702 3.11285L204.396 75.4368L179.376 176.141L104.682 103.817L129.702 3.11285V3.11285Z" stroke="#B5BDFC" stroke-width="0.28"/>
<path fill-rule="evenodd" clip-rule="evenodd" d="M104.683 103.817L179.377 176.141L78.7426 204.704L4.04874 132.38L104.683 103.817V103.817Z" stroke="#B5BDFC" stroke-width="0.28"/>
<path fill-rule="evenodd" clip-rule="evenodd" d="M129.704 3.11285L104.683 103.817L4.04874 132.38L28.8854 31.6762L129.704 3.11285V3.11285Z" stroke="#B5BDFC" stroke-width="0.28"/>
<path fill-rule="evenodd" clip-rule="evenodd" d="M3.1275 135.676C4.85477 135.676 6.255 134.283 6.255 132.563C6.255 130.844 4.85477 129.451 3.1275 129.451C1.40023 129.451 0 130.844 0 132.563C0 134.283 1.40023 135.676 3.1275 135.676Z" fill="#B6BDFC"/>
<path fill-rule="evenodd" clip-rule="evenodd" d="M28.8839 34.7888C30.6113 34.7888 32.0115 33.3952 32.0115 31.6761C32.0115 29.9571 30.6113 28.5635 28.8839 28.5635C27.1566 28.5635 25.7563 29.9571 25.7563 31.6761C25.7563 33.3952 27.1566 34.7888 28.8839 34.7888Z" fill="#B6BDFC"/>
<path fill-rule="evenodd" clip-rule="evenodd" d="M104.13 106.38C105.857 106.38 107.257 104.987 107.257 103.268C107.257 101.549 105.857 100.155 104.13 100.155C102.402 100.155 101.002 101.549 101.002 103.268C101.002 104.987 102.402 106.38 104.13 106.38Z" fill="#B6BDFC"/>
<path fill-rule="evenodd" clip-rule="evenodd" d="M179.56 179.07C181.287 179.07 182.687 177.677 182.687 175.958C182.687 174.239 181.287 172.845 179.56 172.845C177.832 172.845 176.432 174.239 176.432 175.958C176.432 177.677 177.832 179.07 179.56 179.07Z" fill="#B6BDFC"/>
<path fill-rule="evenodd" clip-rule="evenodd" d="M129.702 6.22528C131.43 6.22528 132.83 4.8317 132.83 3.11264C132.83 1.39358 131.43 0 129.702 0C127.975 0 126.575 1.39358 126.575 3.11264C126.575 4.8317 127.975 6.22528 129.702 6.22528Z" fill="#B6BDFC"/>
<path fill-rule="evenodd" clip-rule="evenodd" d="M78.3733 208C80.1006 208 81.5009 206.606 81.5009 204.887C81.5009 203.168 80.1006 201.775 78.3733 201.775C76.646 201.775 75.2458 203.168 75.2458 204.887C75.2458 206.606 76.646 208 78.3733 208Z" fill="#B6BDFC"/>
<path fill-rule="evenodd" clip-rule="evenodd" d="M204.764 78.5493C206.491 78.5493 207.892 77.1557 207.892 75.4366C207.892 73.7176 206.491 72.324 204.764 72.324C203.037 72.324 201.636 73.7176 201.636 75.4366C201.636 77.1557 203.037 78.5493 204.764 78.5493Z" fill="#B6BDFC"/>
<path d="M151.278 36.4438C149.495 34.8164 147.409 33.5628 145.142 32.7554C142.876 31.9481 140.473 31.603 138.074 31.7403C135.674 31.8775 133.325 32.4944 131.163 33.555C129.001 34.6157 127.069 36.0992 125.478 37.9196L134.403 44.4785C142.516 39.3953 148.358 34.6401 152.414 37.5916L151.278 36.4438Z" fill="#FECB31"/>
<path d="M151.278 36.4438C149.495 34.8164 147.409 33.5628 145.142 32.7554C142.876 31.9481 140.473 31.603 138.074 31.7403C135.674 31.8775 133.325 32.4944 131.163 33.555C129.001 34.6157 127.069 36.0992 125.478 37.9196L134.403 44.4785C142.516 39.3953 148.358 34.6401 152.414 37.5916L151.278 36.4438Z" fill="url(#paint0_linear)"/>
<path d="M154.199 39.558C149.331 30.7034 134.403 42.3455 134.403 42.3455C134.403 42.3455 134.403 91.5376 141.867 85.6346C149.852 78.5231 155.036 68.7442 156.471 58.087C157.585 51.8206 156.793 45.3601 154.199 39.558ZM145.275 55.9554C144.488 61.2667 142.727 66.383 140.082 71.0409C139.13 62.2188 138.642 53.3517 138.622 44.4772C140.353 43.3963 142.14 42.411 143.976 41.5257C145.603 46.0919 146.049 51.002 145.275 55.7914V55.9554Z" fill="#F59C1E"/>
<path d="M154.199 39.558C149.331 30.7034 134.403 42.3455 134.403 42.3455C134.403 42.3455 134.403 91.5376 141.867 85.6346C149.852 78.5231 155.036 68.7442 156.471 58.087C157.585 51.8206 156.793 45.3601 154.199 39.558ZM145.275 55.9554C144.488 61.2667 142.727 66.383 140.082 71.0409C139.13 62.2188 138.642 53.3517 138.622 44.4772C140.353 43.3963 142.14 42.411 143.976 41.5257C145.603 46.0919 146.049 51.002 145.275 55.7914V55.9554Z" fill="url(#paint1_linear)"/>
<path d="M150.792 42.6738C150.305 41.8539 149.331 40.5421 148.033 40.5421C144.627 41.0638 141.397 42.4144 138.622 44.4775C140.353 43.3966 142.14 42.4113 143.977 41.526C145.603 46.0923 146.05 51.0023 145.275 55.7917C144.488 61.1031 142.727 66.2194 140.082 70.8774C140.46 73.5866 141.002 76.2699 141.705 78.9121C147.666 73.269 151.411 65.6416 152.252 57.4315C153.228 52.4749 152.72 47.3369 150.792 42.6738Z" fill="#12172F"/>
<path d="M138.785 51.8555C138.704 52.8924 138.704 53.9341 138.785 54.971C138.704 53.9341 138.704 52.8924 138.785 51.8555Z" fill="#AB5300"/>
<path d="M138.947 55.1343C138.866 56.1164 138.866 57.1036 138.947 58.0858C138.866 57.1036 138.866 56.1164 138.947 55.1343Z" fill="#AB5300"/>
<path d="M130.347 157.127C123.327 152.619 115.133 150.335 106.818 150.568C98.5573 150.357 90.4218 152.641 83.4521 157.127H77.1238V162.867C77.1238 172.213 90.4295 179.264 106.818 179.264C123.207 179.264 136.675 171.557 136.675 162.867V157.127H130.347Z" fill="url(#paint2_linear)"/>
<path d="M136.675 157.129C136.675 166.476 123.369 173.527 106.818 173.527C90.2672 173.527 77.1238 165.82 77.1238 157.129C77.1238 148.439 90.4295 140.732 106.818 140.732C123.207 140.732 136.675 147.619 136.675 157.129Z" fill="#FECB31"/>
<path d="M136.675 157.129C136.675 166.476 123.369 173.527 106.818 173.527C90.2672 173.527 77.1238 165.82 77.1238 157.129C77.1238 148.439 90.4295 140.732 106.818 140.732C123.207 140.732 136.675 147.619 136.675 157.129Z" fill="url(#paint3_linear)"/>
<path d="M119.962 149.419C116.053 146.877 111.463 145.617 106.818 145.812C102.225 145.619 97.6866 146.88 93.837 149.419H90.2672V155.322C90.2672 160.57 97.7314 164.833 106.494 164.833C115.256 164.833 122.72 160.57 122.72 155.322V149.419H119.962Z" fill="url(#paint4_linear)"/>
<path d="M106.818 158.932C116.049 158.932 123.531 154.674 123.531 149.422C123.531 144.169 116.049 139.911 106.818 139.911C97.5875 139.911 90.1047 144.169 90.1047 149.422C90.1047 154.674 97.5875 158.932 106.818 158.932Z" fill="#FECB31"/>
<path d="M106.818 158.932C116.049 158.932 123.531 154.674 123.531 149.422C123.531 144.169 116.049 139.911 106.818 139.911C97.5875 139.911 90.1047 144.169 90.1047 149.422C90.1047 154.674 97.5875 158.932 106.818 158.932Z" fill="url(#paint5_linear)"/>
<path d="M115.094 126.464C112.642 124.84 109.747 124.036 106.818 124.169C103.943 124.06 101.106 124.863 98.7051 126.464H96.5957V147.617C96.5957 150.896 101.139 153.52 106.818 153.52C112.498 153.52 116.879 150.896 116.879 147.617V126.464H115.094Z" fill="url(#paint6_linear)"/>
<path d="M149.331 51.8555H65.2778C65.2778 128.431 91.5647 139.582 106.818 139.582C122.07 139.582 149.331 127.612 149.331 51.8555Z" fill="url(#paint7_linear)"/>
<path d="M149.331 51.8563C149.331 64.9742 129.859 75.6324 106.818 75.6324C83.776 75.6324 65.2778 64.9742 65.2778 51.8563C65.2778 38.7384 84.4251 28.0801 106.818 28.0801C129.21 28.0801 149.331 38.7384 149.331 51.8563Z" fill="#FFDE7A"/>
<path d="M149.331 51.8563C149.331 64.9742 129.859 75.6324 106.818 75.6324C83.776 75.6324 65.2778 64.9742 65.2778 51.8563C65.2778 38.7384 84.4251 28.0801 106.818 28.0801C129.21 28.0801 149.331 38.7384 149.331 51.8563Z" fill="url(#paint8_linear)"/>
<path d="M106.818 72.0245C86.2108 72.0245 68.1994 62.678 68.1994 51.8558C68.1994 41.0335 86.2108 31.687 106.818 31.687C127.426 31.687 144.951 40.8695 144.951 51.8558C144.951 62.842 127.588 72.0245 106.818 72.0245Z" fill="#E3A723"/>
<path d="M106.818 72.0245C86.2108 72.0245 68.1994 62.678 68.1994 51.8558C68.1994 41.0335 86.2108 31.687 106.818 31.687C127.426 31.687 144.951 40.8695 144.951 51.8558C144.951 62.842 127.588 72.0245 106.818 72.0245Z" fill="url(#paint9_linear)"/>
<path d="M81.0175 110.067C77.8818 109.285 74.949 107.831 72.4175 105.804C72.4175 105.804 66.4137 110.067 63.3307 101.868C63.3984 105.394 63.7785 108.906 64.4665 112.363L73.8779 114.986L81.0175 110.067Z" fill="#FECB31"/>
<path d="M81.0175 110.067C77.8818 109.285 74.949 107.831 72.4175 105.804C72.4175 105.804 66.4137 110.067 63.3307 101.868C63.3984 105.394 63.7785 108.906 64.4665 112.363L73.8779 114.986L81.0175 110.067Z" fill="url(#paint10_linear)"/>
<path d="M73.8333 112.949C69.6156 113.051 66.4562 109.846 65.3477 104.132C64.6625 99.4942 65.1747 94.7559 66.8346 90.3767C68.4946 85.9975 71.246 82.1259 74.8221 79.1373L74.714 74.5474C69.8454 77.8311 65.9907 82.4343 63.5916 87.8297C61.1926 93.2251 60.3461 99.1943 61.1493 105.053C61.2252 107.387 61.9316 109.654 63.192 111.611C64.4523 113.567 66.2184 115.138 68.299 116.152C70.3796 117.167 72.6952 117.586 74.995 117.366C77.2948 117.145 79.491 116.293 81.3456 114.901L82.1567 114.881L81.0675 109.987C78.8361 111.375 76.3911 112.376 73.8333 112.949Z" fill="#F59C1E"/>
<path d="M73.8333 112.949C69.6156 113.051 66.4562 109.846 65.3477 104.132C64.6625 99.4942 65.1747 94.7559 66.8346 90.3767C68.4946 85.9975 71.246 82.1259 74.8221 79.1373L74.714 74.5474C69.8454 77.8311 65.9907 82.4343 63.5916 87.8297C61.1926 93.2251 60.3461 99.1943 61.1493 105.053C61.2252 107.387 61.9316 109.654 63.192 111.611C64.4523 113.567 66.2184 115.138 68.299 116.152C70.3796 117.167 72.6952 117.586 74.995 117.366C77.2948 117.145 79.491 116.293 81.3456 114.901L82.1567 114.881L81.0675 109.987C78.8361 111.375 76.3911 112.376 73.8333 112.949Z" fill="url(#paint11_linear)"/>
<path d="M61.222 104.655C60.4879 98.9004 61.3421 93.0523 63.6901 87.7569C66.0382 82.4616 69.7888 77.925 74.5277 74.6481C74.5277 74.6481 66.2522 70.7128 65.9277 68.4171C60.9724 71.553 57.0192 76.0688 54.5435 81.4214C52.0678 86.7739 51.1751 92.7353 51.9728 98.5884C52.9537 102.677 54.9629 106.441 57.8057 109.515C60.6485 112.589 64.2286 114.868 68.1994 116.134C66.2442 114.888 64.5982 113.205 63.3885 111.215C62.1787 109.225 61.4375 106.981 61.222 104.655Z" fill="#FECB31"/>
<path d="M61.222 104.655C60.4879 98.9004 61.3421 93.0523 63.6901 87.7569C66.0382 82.4616 69.7888 77.925 74.5277 74.6481C74.5277 74.6481 66.2522 70.7128 65.9277 68.4171C60.9724 71.553 57.0192 76.0688 54.5435 81.4214C52.0678 86.7739 51.1751 92.7353 51.9728 98.5884C52.9537 102.677 54.9629 106.441 57.8057 109.515C60.6485 112.589 64.2286 114.868 68.1994 116.134C66.2442 114.888 64.5982 113.205 63.3885 111.215C62.1787 109.225 61.4375 106.981 61.222 104.655Z" fill="url(#paint12_linear)"/>
<path d="M116.69 88.816V119.692L115.127 120.63V93.395L109.499 99.1664V97.5764L116.69 88.816Z" fill="white"/>
<defs>
<linearGradient id="paint0_linear" x1="120.219" y1="42.0951" x2="139.194" y2="57.2602" gradientUnits="userSpaceOnUse">
<stop stop-color="#4C49C4"/>
<stop offset="0.25" stop-color="#4C49C4"/>
<stop offset="0.54" stop-color="#4B48D6"/>
<stop offset="0.85" stop-color="#009FFF"/>
<stop offset="1" stop-color="#009FFF"/>
</linearGradient>
<linearGradient id="paint1_linear" x1="134.403" y1="61.1806" x2="156.962" y2="61.1806" gradientUnits="userSpaceOnUse">
<stop stop-color="#009FFF"/>
<stop offset="1" stop-color="#4C49C4"/>
</linearGradient>
<linearGradient id="paint2_linear" x1="77.0089" y1="179.294" x2="136.695" y2="179.294" gradientUnits="userSpaceOnUse">
<stop stop-color="#009FFF"/>
<stop offset="0.25" stop-color="#01A4FF"/>
<stop offset="0.54" stop-color="#009FFF"/>
<stop offset="0.78125" stop-color="#5E5BE1"/>
<stop offset="1" stop-color="#4C49C4"/>
</linearGradient>
<linearGradient id="paint3_linear" x1="106.899" y1="140.732" x2="106.899" y2="173.527" gradientUnits="userSpaceOnUse">
<stop offset="0.166667" stop-color="#303D87"/>
<stop offset="1" stop-color="#1A193D"/>
</linearGradient>
<linearGradient id="paint4_linear" x1="90.2046" y1="164.853" x2="122.731" y2="164.853" gradientUnits="userSpaceOnUse">
<stop stop-color="#009FFF"/>
<stop offset="0.25" stop-color="#01A4FF"/>
<stop offset="0.54" stop-color="#009FFF"/>
<stop offset="0.78125" stop-color="#5E5BE1"/>
<stop offset="1" stop-color="#4C49C4"/>
</linearGradient>
<linearGradient id="paint5_linear" x1="106.818" y1="139.911" x2="106.818" y2="158.932" gradientUnits="userSpaceOnUse">
<stop offset="0.166667" stop-color="#303D87"/>
<stop offset="1" stop-color="#1A193D"/>
</linearGradient>
<linearGradient id="paint6_linear" x1="96.5566" y1="153.551" x2="116.886" y2="153.551" gradientUnits="userSpaceOnUse">
<stop stop-color="#009FFF"/>
<stop offset="0.25" stop-color="#01A4FF"/>
<stop offset="0.54" stop-color="#009FFF"/>
<stop offset="0.78125" stop-color="#5E5BE1"/>
<stop offset="1" stop-color="#4C49C4"/>
</linearGradient>
<linearGradient id="paint7_linear" x1="65.2778" y1="95.7186" x2="149.331" y2="95.7186" gradientUnits="userSpaceOnUse">
<stop stop-color="#009FFF"/>
<stop offset="1" stop-color="#4C49C4"/>
</linearGradient>
<linearGradient id="paint8_linear" x1="65.1157" y1="75.6826" x2="149.359" y2="75.6826" gradientUnits="userSpaceOnUse">
<stop stop-color="#4C49C4"/>
<stop offset="0.25" stop-color="#01A4FF"/>
<stop offset="0.54" stop-color="#009FFF"/>
<stop offset="0.78125" stop-color="#5E5BE1"/>
<stop offset="1" stop-color="#4C49C4"/>
</linearGradient>
<linearGradient id="paint9_linear" x1="53.2148" y1="64.4945" x2="111.521" y2="106.523" gradientUnits="userSpaceOnUse">
<stop stop-color="#4C49C4"/>
<stop offset="0.25" stop-color="#4C49C4"/>
<stop offset="0.54" stop-color="#4B48D6"/>
<stop offset="0.85" stop-color="#009FFF"/>
<stop offset="1" stop-color="#009FFF"/>
</linearGradient>
<linearGradient id="paint10_linear" x1="59.8776" y1="112.538" x2="76.0704" y2="120.809" gradientUnits="userSpaceOnUse">
<stop stop-color="#4C49C4"/>
<stop offset="0.25" stop-color="#4C49C4"/>
<stop offset="0.54" stop-color="#4B48D6"/>
<stop offset="0.85" stop-color="#009FFF"/>
<stop offset="1" stop-color="#009FFF"/>
</linearGradient>
<linearGradient id="paint11_linear" x1="60.7416" y1="96.3121" x2="81.7076" y2="95.8182" gradientUnits="userSpaceOnUse">
<stop stop-color="#009FFF"/>
<stop offset="1" stop-color="#4C49C4"/>
</linearGradient>
<linearGradient id="paint12_linear" x1="47.2302" y1="107.226" x2="72.7558" y2="111.855" gradientUnits="userSpaceOnUse">
<stop stop-color="#4C49C4"/>
<stop offset="0.25" stop-color="#4C49C4"/>
<stop offset="0.54" stop-color="#4B48D6"/>
<stop offset="0.85" stop-color="#009FFF"/>
<stop offset="1" stop-color="#009FFF"/>
</linearGradient>
</defs>
</svg>
