<svg width="208" height="208" viewBox="0 0 208 208" fill="none" xmlns="http://www.w3.org/2000/svg">
<path fill-rule="evenodd" clip-rule="evenodd" d="M157.523 135.549V74.1187L166.539 68.8457C166.539 68.8457 167.653 109.082 172.272 124.82C172.604 125.949 172.128 127.16 171.118 127.761L157.523 135.549Z" fill="url(#paint0_linear)"/>
<path fill-rule="evenodd" clip-rule="evenodd" d="M157.523 135.549V74.1187L166.539 68.8457C166.539 68.8457 167.653 109.082 172.272 124.82C172.604 125.949 172.128 127.16 171.118 127.761L157.523 135.549Z" fill="url(#paint1_linear)"/>
<path fill-rule="evenodd" clip-rule="evenodd" d="M157.523 135.549L146.664 129.262V67.8116L157.523 74.0783V135.549Z" fill="url(#paint2_linear)"/>
<path fill-rule="evenodd" clip-rule="evenodd" d="M157.523 135.549L146.664 129.262V67.8116L157.523 74.0783V135.549Z" fill="url(#paint3_linear)"/>
<path fill-rule="evenodd" clip-rule="evenodd" d="M146.664 67.8115L155.68 62.5183L166.539 68.8053L157.523 74.0782L146.664 67.8115Z" fill="#CCCCCC"/>
<path fill-rule="evenodd" clip-rule="evenodd" d="M176.426 52.4794C170.51 42.5013 160.542 37.4718 154.14 41.2642L103.856 70.0627L125.493 106.101L175.595 77.4043C181.977 73.6118 182.341 62.4575 176.426 52.4794Z" fill="url(#paint4_linear)"/>
<path fill-rule="evenodd" clip-rule="evenodd" d="M103.248 94.866C109.164 104.864 119.132 109.874 125.534 106.101C131.936 102.329 132.28 91.1546 126.364 81.1765C120.449 71.1985 110.542 66.1689 104.079 70.0628C97.6162 73.9566 97.3326 84.8879 103.248 94.866Z" fill="#B0B0B0"/>
<path fill-rule="evenodd" clip-rule="evenodd" d="M165.121 58.3608C158.557 47.2876 147.495 41.7104 140.424 45.9085L133.091 50.1066C110.433 63.0921 84.4081 68.9835 58.3735 67.0206L106.247 150.171L131.774 115.086C140.416 103.223 151.462 93.3201 164.189 86.0235C171.32 81.8254 171.705 69.4542 165.121 58.3608Z" fill="url(#paint5_linear)"/>
<path fill-rule="evenodd" clip-rule="evenodd" d="M102.425 153.111C117.194 144.336 118.043 118.459 104.32 95.3137C90.5966 72.1682 67.4987 60.5188 52.7292 69.294C37.9596 78.0692 37.1112 103.946 50.8342 127.091C64.5572 150.237 87.655 161.886 102.425 153.111Z" fill="url(#paint6_linear)"/>
<path fill-rule="evenodd" clip-rule="evenodd" d="M100.243 149.977C113.858 141.888 114.64 118.035 101.991 96.7007C89.3416 75.366 68.0501 64.6284 54.4352 72.7176C40.8202 80.8068 40.0375 104.66 52.6869 125.994C65.3362 147.329 86.6277 158.067 100.243 149.977Z" fill="url(#paint7_linear)"/>
<path fill-rule="evenodd" clip-rule="evenodd" d="M101.992 96.7115C98.2325 90.2857 93.4017 84.5513 87.7093 79.757L71.1168 100.321L72.4539 105.371L82.8673 121.596L108.516 111.273C106.933 106.175 104.743 101.286 101.992 96.7115Z" fill="url(#paint8_linear)"/>
<path fill-rule="evenodd" clip-rule="evenodd" d="M101.992 96.7115C98.2325 90.2857 93.4017 84.5513 87.7093 79.757L71.1168 100.321L72.4539 105.371L82.8673 121.596L108.516 111.273C106.933 106.175 104.743 101.286 101.992 96.7115Z" fill="url(#paint9_linear)"/>
<path fill-rule="evenodd" clip-rule="evenodd" d="M83.5579 121.277C87.2527 119.082 87.4656 112.609 84.0334 106.82C80.6012 101.032 74.8236 98.1185 71.1288 100.314C67.434 102.509 67.2211 108.981 70.6533 114.77C74.0855 120.559 79.863 123.472 83.5579 121.277Z" fill="url(#paint10_linear)"/>
<path fill-rule="evenodd" clip-rule="evenodd" d="M71.6638 114.173C74.4394 118.878 79.1396 121.251 82.138 119.466C85.1364 117.682 85.3187 112.429 82.5432 107.724C79.7676 103.019 75.0471 100.646 72.0487 102.512C69.0503 104.377 68.868 109.468 71.6638 114.173Z" fill="white"/>
<path fill-rule="evenodd" clip-rule="evenodd" d="M73.9531 112.652C75.4118 115.106 77.8429 116.323 79.3826 115.41C80.9223 114.497 81.0236 111.76 79.5852 109.326C78.1468 106.892 75.7157 105.615 74.0747 106.568C72.4337 107.521 72.5147 110.178 73.9531 112.652Z" fill="url(#paint11_linear)"/>
<path fill-rule="evenodd" clip-rule="evenodd" d="M73.9531 112.652C75.4118 115.106 77.8429 116.323 79.3826 115.41C80.9223 114.497 81.0236 111.76 79.5852 109.326C78.1468 106.892 75.7157 105.615 74.0747 106.568C72.4337 107.521 72.5147 110.178 73.9531 112.652Z" fill="url(#paint12_linear)"/>
<path fill-rule="evenodd" clip-rule="evenodd" d="M129.702 3.11292L204.396 75.4369L179.376 176.141L104.682 103.817L129.702 3.11292V3.11292Z" stroke="#B5BDFC" stroke-width="0.28"/>
<path fill-rule="evenodd" clip-rule="evenodd" d="M104.683 103.817L179.377 176.141L78.7427 204.704L4.04886 132.38L104.683 103.817V103.817Z" stroke="#B5BDFC" stroke-width="0.28"/>
<path fill-rule="evenodd" clip-rule="evenodd" d="M129.704 3.11292L104.683 103.817L4.04886 132.38L28.8855 31.6763L129.704 3.11292V3.11292Z" stroke="#B5BDFC" stroke-width="0.28"/>
<path fill-rule="evenodd" clip-rule="evenodd" d="M3.12756 135.676C4.85487 135.676 6.25513 134.283 6.25513 132.563C6.25513 130.844 4.85487 129.451 3.12756 129.451C1.40026 129.451 0 130.844 0 132.563C0 134.283 1.40026 135.676 3.12756 135.676Z" fill="#B6BDFC"/>
<path fill-rule="evenodd" clip-rule="evenodd" d="M28.884 34.7888C30.6113 34.7888 32.0116 33.3952 32.0116 31.6761C32.0116 29.9571 30.6113 28.5635 28.884 28.5635C27.1567 28.5635 25.7565 29.9571 25.7565 31.6761C25.7565 33.3952 27.1567 34.7888 28.884 34.7888Z" fill="#B6BDFC"/>
<path fill-rule="evenodd" clip-rule="evenodd" d="M104.13 106.38C105.857 106.38 107.257 104.987 107.257 103.268C107.257 101.548 105.857 100.155 104.13 100.155C102.402 100.155 101.002 101.548 101.002 103.268C101.002 104.987 102.402 106.38 104.13 106.38Z" fill="#B6BDFC"/>
<path fill-rule="evenodd" clip-rule="evenodd" d="M179.56 179.07C181.287 179.07 182.687 177.677 182.687 175.958C182.687 174.239 181.287 172.845 179.56 172.845C177.832 172.845 176.432 174.239 176.432 175.958C176.432 177.677 177.832 179.07 179.56 179.07Z" fill="#B6BDFC"/>
<path fill-rule="evenodd" clip-rule="evenodd" d="M129.702 6.22534C131.43 6.22534 132.83 4.83175 132.83 3.11267C132.83 1.39359 131.43 0 129.702 0C127.975 0 126.575 1.39359 126.575 3.11267C126.575 4.83175 127.975 6.22534 129.702 6.22534Z" fill="#B6BDFC"/>
<path fill-rule="evenodd" clip-rule="evenodd" d="M78.3734 208C80.1008 208 81.501 206.606 81.501 204.887C81.501 203.168 80.1008 201.775 78.3734 201.775C76.6461 201.775 75.2458 203.168 75.2458 204.887C75.2458 206.606 76.6461 208 78.3734 208Z" fill="#B6BDFC"/>
<path fill-rule="evenodd" clip-rule="evenodd" d="M204.764 78.5493C206.491 78.5493 207.892 77.1557 207.892 75.4366C207.892 73.7176 206.491 72.324 204.764 72.324C203.037 72.324 201.636 73.7176 201.636 75.4366C201.636 77.1557 203.037 78.5493 204.764 78.5493Z" fill="#B6BDFC"/>
<defs>
<linearGradient id="paint0_linear" x1="158.408" y1="82.7176" x2="158.408" y2="141.552" gradientUnits="userSpaceOnUse">
<stop stop-color="#DBA5F5"/>
<stop offset="0.19" stop-color="#DBA0F5"/>
<stop offset="0.41" stop-color="#DB93F5"/>
<stop offset="0.64" stop-color="#DB7CF5"/>
<stop offset="0.87" stop-color="#DB5CF5"/>
<stop offset="1" stop-color="#DB48F5"/>
</linearGradient>
<linearGradient id="paint1_linear" x1="157.523" y1="102.197" x2="172.377" y2="102.197" gradientUnits="userSpaceOnUse">
<stop stop-color="#009FFF"/>
<stop offset="1" stop-color="#4C49C4"/>
</linearGradient>
<linearGradient id="paint2_linear" x1="147.196" y1="74.1595" x2="147.196" y2="135.265" gradientUnits="userSpaceOnUse">
<stop stop-color="#DBA5F5"/>
<stop offset="0.19" stop-color="#DBA0F5"/>
<stop offset="0.41" stop-color="#DB93F5"/>
<stop offset="0.64" stop-color="#DB7CF5"/>
<stop offset="0.87" stop-color="#DB5CF5"/>
<stop offset="1" stop-color="#DB48F5"/>
</linearGradient>
<linearGradient id="paint3_linear" x1="146.664" y1="101.68" x2="157.523" y2="101.68" gradientUnits="userSpaceOnUse">
<stop stop-color="#009FFF"/>
<stop offset="1" stop-color="#4C49C4"/>
</linearGradient>
<linearGradient id="paint4_linear" x1="103.708" y1="106.171" x2="180.659" y2="106.171" gradientUnits="userSpaceOnUse">
<stop stop-color="#009FFF"/>
<stop offset="0.25" stop-color="#01A4FF"/>
<stop offset="0.54" stop-color="#009FFF"/>
<stop offset="0.78125" stop-color="#5E5BE1"/>
<stop offset="1" stop-color="#4C49C4"/>
</linearGradient>
<linearGradient id="paint5_linear" x1="58.3735" y1="97.3408" x2="169.81" y2="97.3408" gradientUnits="userSpaceOnUse">
<stop stop-color="#009FFF"/>
<stop offset="1" stop-color="#4C49C4"/>
</linearGradient>
<linearGradient id="paint6_linear" x1="75.6311" y1="169.15" x2="129.267" y2="137.349" gradientUnits="userSpaceOnUse">
<stop stop-color="#009FFF"/>
<stop offset="0.25" stop-color="#01A4FF"/>
<stop offset="0.54" stop-color="#009FFF"/>
<stop offset="0.78125" stop-color="#5E5BE1"/>
<stop offset="1" stop-color="#4C49C4"/>
</linearGradient>
<linearGradient id="paint7_linear" x1="57.4136" y1="155.921" x2="118.915" y2="137.037" gradientUnits="userSpaceOnUse">
<stop stop-color="#4C49C4"/>
<stop offset="0.25" stop-color="#4C49C4"/>
<stop offset="0.54" stop-color="#4B48D6"/>
<stop offset="0.85" stop-color="#009FFF"/>
<stop offset="1" stop-color="#009FFF"/>
</linearGradient>
<linearGradient id="paint8_linear" x1="83.7346" y1="133.332" x2="125.07" y2="112.726" gradientUnits="userSpaceOnUse">
<stop stop-color="#DBA5F5"/>
<stop offset="0.19" stop-color="#DBA0F5"/>
<stop offset="0.41" stop-color="#DB93F5"/>
<stop offset="0.64" stop-color="#DB7CF5"/>
<stop offset="0.87" stop-color="#DB5CF5"/>
<stop offset="1" stop-color="#DB48F5"/>
</linearGradient>
<linearGradient id="paint9_linear" x1="71.1168" y1="100.676" x2="108.516" y2="100.676" gradientUnits="userSpaceOnUse">
<stop stop-color="#009FFF"/>
<stop offset="1" stop-color="#4C49C4"/>
</linearGradient>
<linearGradient id="paint10_linear" x1="76.8551" y1="125.289" x2="90.2728" y2="117.334" gradientUnits="userSpaceOnUse">
<stop stop-color="#009FFF"/>
<stop offset="0.25" stop-color="#01A4FF"/>
<stop offset="0.54" stop-color="#009FFF"/>
<stop offset="0.78125" stop-color="#5E5BE1"/>
<stop offset="1" stop-color="#4C49C4"/>
</linearGradient>
<linearGradient id="paint11_linear" x1="72.9402" y1="115.639" x2="80.6185" y2="115.639" gradientUnits="userSpaceOnUse">
<stop stop-color="#7348BF"/>
<stop offset="0.25" stop-color="#784AC1"/>
<stop offset="0.54" stop-color="#854FC8"/>
<stop offset="0.85" stop-color="#9C58D4"/>
<stop offset="1" stop-color="#AA5DDB"/>
</linearGradient>
<linearGradient id="paint12_linear" x1="72.8591" y1="110.982" x2="80.6036" y2="110.982" gradientUnits="userSpaceOnUse">
<stop stop-color="#009FFF"/>
<stop offset="1" stop-color="#4C49C4"/>
</linearGradient>
</defs>
</svg>
